<svg id="Layer_1" data-name="Layer 1" xmlns="http://www.w3.org/2000/svg" viewBox="0 0 298.21 404.68"><defs><style>.cls-1{fill:#fff;}</style></defs><path class="cls-1" d="M361.84,53.66a45.63,45.63,0,0,0-10.16,1c-28,5.65-45.48,34.84-42.87,60.72,2.61,26.08,25.14,47.1,53.17,41.46s45.48-34.64,42.87-60.72c-2.34-22.77-19.79-41.85-43-42.43ZM107,277.47c-1.65,57.22,24.32,55.67,86,51.38l-61,81.94c-12.36,18.1,18.69,55.27,33.94,46.13L289.43,314.84C299.6,403,301,405.15,305.78,429.28c5.23,25.88,39.44,17.13,36.55-3.11-6.32-46.13-12.91-159-26.65-239.58-19.79-11.49-28.31-36.4-31.33-66.18a103.56,103.56,0,0,1,3.43-39.31c-65,8-169.27,115-180.81,196.37ZM279.4,212.08,285,265.8l-61.83-7.2Z" transform="translate(-106.89 -53.66)"/></svg>